<svg viewBox="0 0 16 16" fill="none" xmlns="http://www.w3.org/2000/svg">
  <path d="M8 0C3.5888 0 0 3.5888 0 8s3.5888 8 8 8 8-3.5888 8-8-3.5888-8-8-8zm0 14.2977c-3.47254 0-6.2979-2.825-6.2979-6.2977 0-3.4727 2.82536-6.29774 6.2979-6.29774 3.4725 0 6.2979 2.82504 6.2979 6.29774S11.4725 14.2977 8 14.2977z" fill="#EFB41C"/>
  <path d="M12.1694 7.75285H8.57413V3.43009c0-.36377-.29494-.65871-.65871-.65871-.36377 0-.65871.29494-.65871.65871v4.98147c0 .36377.29494.65871.65871.65871h4.25398c.3637 0 .6587-.29494.6587-.65871 0-.36377-.295-.65871-.6587-.65871z" fill="#EFB41C"/>
</svg>
