<svg viewBox="0 0 16 16" fill="none" xmlns="http://www.w3.org/2000/svg">
  <g clip-path="url(#clip0)" fill="#EFB41C">
    <path d="M1.53568 5.58935c.2024.14282.8125.567 1.83034 1.27233 1.01787.70533 1.79763 1.24841 2.3393 1.62928.05952.04175.18595.13251.37937.27239.19346.13998.3542.25309.48211.33937.128.08625.28273.18301.46437.29012.18157.10702.35272.18751.51343.2408.16075.05373.30954.08034.44642.08034h.01799c.13688 0 .28574-.02664.44648-.08034.16065-.05329.33196-.13388.51337-.2408.18151-.10723.33625-.2039.46425-.29012.128-.08628.28862-.19939.48213-.33937.19336-.14001.31996-.23064.37946-.27239.5476-.38087 1.9405-1.34817 4.1786-2.9018.4345-.30344.7975-.66959 1.0891-1.09818.2918-.42841.4376-.87783.4376-1.34801 0-.39292-.1414-.72926-.4242-1.00899-.2828-.2798-.6176-.41962-1.0044-.41962H1.42851c-.458301 0-.810996.15474-1.058021.46421C.123496 2.48811 0 2.87502 0 3.33926c0 .375.163745.78136.491077 1.21883.327302.43751.675623.78129 1.044603 1.03126z"/>
    <path d="M15.107 6.54465c-1.9521 1.32131-3.4345 2.34818-4.4462 3.0804-.3393.24991-.6146.44495-.82593.58475-.21137.1399-.49248.2828-.84374.4285-.35113.146-.67837.2188-.982.2188h-.01808c-.30356 0-.63099-.0728-.98212-.2188-.35113-.1457-.63243-.2886-.84374-.4285-.21125-.1398-.48657-.33484-.82582-.58475-.80362-.58924-2.28276-1.61618-4.437493-3.0804C.562505 6.31861.26191 6.05951 0 5.76789V12.857c0 .3931.139821.7292.419619 1.009.279735.2799.616101.4197 1.008991.4197H14.5715c.3928 0 .7291-.1398 1.0089-.4197.2799-.2799.4196-.6159.4196-1.009V5.76789c-.256.28559-.5535.54468-.893.77676z"/>
  </g>
  <defs>
    <clipPath id="clip0">
      <path fill="#fff" d="M0 0h16v16H0z"/>
    </clipPath>
  </defs>
</svg>
