<svg width="41" height="40" viewBox="0 0 41 40" fill="none" xmlns="http://www.w3.org/2000/svg">
<path d="M20.5 0C9.47205 0 0.5 8.97205 0.5 20C0.5 31.0271 9.47205 40 20.5 40C31.5271 40 40.5 31.0271 40.5 20C40.5 8.97205 31.5288 0 20.5 0ZM25.4738 20.7041H22.22C22.22 25.9027 22.22 32.3016 22.22 32.3016H17.3984C17.3984 32.3016 17.3984 25.9647 17.3984 20.7041H15.1065V16.6052H17.3984V13.9539C17.3984 12.0551 18.3007 9.08805 22.2643 9.08805L25.8371 9.10175V13.0806C25.8371 13.0806 23.666 13.0806 23.2439 13.0806C22.8218 13.0806 22.2216 13.2917 22.2216 14.1972V16.606H25.8952L25.4738 20.7041Z" fill="url(#paint0_linear)"/>
<defs>
<linearGradient id="paint0_linear" x1="0.5" y1="20" x2="40.5" y2="20" gradientUnits="userSpaceOnUse">
<stop stop-color="#EFB41C"/>
<stop offset="1" stop-color="#FF8A00"/>
</linearGradient>
</defs>
</svg>
