<svg width="44" height="43" viewBox="0 0 44 43" fill="none" xmlns="http://www.w3.org/2000/svg">
<path d="M43.5 21.5C43.5 33.3743 33.8743 43 22 43C10.1257 43 0.5 33.3743 0.5 21.5C0.5 9.62572 10.1257 0 22 0C33.8743 0 43.5 9.62572 43.5 21.5Z" fill="#EFB41C"/>
<path d="M28.1843 36.3652H15.8157C11.0289 36.3652 7.13477 32.4711 7.13477 27.6843V15.3157C7.13477 10.5289 11.0289 6.63477 15.8157 6.63477H28.1843C32.9711 6.63477 36.8652 10.5289 36.8652 15.3157V27.6843C36.8652 32.4711 32.9711 36.3652 28.1843 36.3652ZM15.8157 9.1543C12.4182 9.1543 9.6543 11.9182 9.6543 15.3157V27.6843C9.6543 31.0818 12.4182 33.8457 15.8157 33.8457H28.1843C31.5818 33.8457 34.3457 31.0818 34.3457 27.6843V15.3157C34.3457 11.9182 31.5818 9.1543 28.1843 9.1543H15.8157Z" fill="white"/>
<path d="M22 29.5625C17.5544 29.5625 13.9375 25.9456 13.9375 21.5C13.9375 17.0544 17.5544 13.4375 22 13.4375C26.4456 13.4375 30.0625 17.0544 30.0625 21.5C30.0625 25.9456 26.4456 29.5625 22 29.5625ZM22 15.957C18.9434 15.957 16.457 18.4434 16.457 21.5C16.457 24.5566 18.9434 27.043 22 27.043C25.0566 27.043 27.543 24.5566 27.543 21.5C27.543 18.4434 25.0566 15.957 22 15.957Z" fill="white"/>
<path d="M31.2242 13.429C31.2242 14.0658 30.7078 14.5822 30.071 14.5822C29.4343 14.5822 28.9179 14.0658 28.9179 13.429C28.9179 12.7923 29.4343 12.2759 30.071 12.2759C30.7078 12.2759 31.2242 12.7923 31.2242 13.429Z" fill="white"/>
</svg>
