<svg width="36" height="42" fill="none" xmlns="http://www.w3.org/2000/svg">
  <path d="M26.0378 0H9.04063C4.06897 0 .0200234 4.19284.0200234 9.34161V20.3349C.0180739 22.4904.745218 24.5835 2.08397 26.2763c.16998.2904.87412 1.2826 7.072 7.6173 1.76653 1.8151 6.13723 6.2317 6.61673 6.6553.4774.3658 1.0557.577 1.6572.605h.2125c.601-.0303 1.1788-.2412 1.6572-.605.4857-.4115 4.8564-4.8402 6.6229-6.6553 6.1918-6.3347 6.902-7.3269 7.0719-7.6173 1.3388-1.6928 2.066-3.7859 2.064-5.9414V9.34161C35.0584 4.19284 31.0094 0 26.0378 0zm-2.2521 9.37791h-5.166c-.1497.00104-.2986.02136-.4431.06049V4.74944c0-.15083.0601-.29548.1672-.40214.107-.10666.2521-.16658.4034-.16658h5.6698c1.6545.0016 3.2409.65741 4.4108 1.82348 1.17 1.16607 1.828 2.74714 1.8296 4.3962v5.6509c.0063.0523.0063.1051 0 .1574 0-.8986-.1779-1.7883-.5235-2.6183-.3456-.8299-.852-1.5837-1.4903-2.2182-.6384-.6346-1.396-1.1373-2.2296-1.47955-.8336-.34221-1.7268-.51712-2.6283-.51474zm.607 7.26029c-1.5765-.0019-3.094-.5979-4.248-1.6684-1.154-1.0706-1.8593-2.5364-1.9742-4.1035.0379-.0808.0978-.1492.173-.1973.0752-.0482.1626-.0742.252-.075h5.1719c1.4958.0032 2.9292.5973 3.9863 1.652 1.0571 1.0547 1.6516 2.484 1.6532 3.9748v.4174h-5.0142zm5.0142 1.2101v3.5333c0 .1252-.0499.2452-.1387.3337-.0888.0885-.2093.1383-.3349.1383H24.933c-.2292-1.5777-.9663-3.0385-2.1004-4.1626.5227.112 1.0558.1688 1.5904.1694l4.9839-.0121zm-7.4242.6716c.907.9001 1.5115 2.0585 1.7301 3.3155-1.483-.0206-2.8986-.6215-3.9411-1.6731-1.0425-1.0515-1.6285-2.4693-1.6315-3.9476v-1.5186l3.8425 3.8238zm1.8212 4.5135c-.0225 1.6101-.6762 3.1475-1.8212 4.2835l-4.0125 3.9932c-.053.0529-.1159.0948-.1852.1234-.0692.0287-.1435.0434-.2185.0434-.0749 0-.1492-.0147-.2185-.0434-.0692-.0286-.1322-.0705-.1852-.1234l-4.0064-3.9932c-1.1434-1.1371-1.7967-2.6738-1.8211-4.2835 1.3139-.0071 2.598-.3907 3.6991-1.1052 1.1011-.7145 1.9727-1.7296 2.5109-2.9243.5433 1.1962 1.4207 2.2111 2.5273 2.9235 1.1066.7124 2.3957 1.0922 3.7131 1.0939l.0182.0121zm-6.8474-8.2889v1.4702c-.0028 1.4685-.5815 2.8777-1.6125 3.9267-1.031 1.049-2.4326 1.6548-3.9056 1.6879.2146-1.254.8149-2.4105 1.718-3.3094l3.8001-3.7754zm-6.2283 1.8756H5.66549v-.4175c.0016-1.4908.5961-2.9201 1.65317-3.9748s2.49053-1.6487 3.98624-1.6519h5.172c.1171.0023.2293.0473.3154.1264.0861.0792.1402.187.152.3031-.1522 1.5379-.8728 2.9644-2.0217 4.0021-1.1489 1.0378-2.6439 1.6125-4.1944 1.6126zm5.7487-7.26035h-5.172c-1.71324.00124-3.3638.64255-4.62585 1.79735-1.26204 1.1548-2.04389 2.7392-2.19122 4.4405v-5.2154c.00642-1.64588.66655-3.22228 1.83598-4.38443 1.16943-1.16214 2.753-1.81546 4.40439-1.81705h5.6698c.1496.0072.2912.06926.3977.17424.1064.10499.1701.24548.179.39448v4.69502c-.1637-.04714-.3335-.06956-.5039-.06655l.0061-.01816zM5.66549 17.8301h5.06271c.5367-.0009 1.0717-.0576 1.5965-.1694-1.1356 1.1238-1.8747 2.5845-2.1064 4.1626H6.14508c-.12453-.0016-.24342-.052-.33091-.1403-.08748-.0884-.13654-.2075-.13653-.3316l-.01215-3.5213zm12.92391 21.781h.0364-.0364zm15.261-19.2762c.0053 1.8998-.6368 3.745-1.8211 5.2335l-.0547.0787c-.6556 1.1677-12.5839 13.2077-13.3974 13.9156-.283.2053-.6213.3213-.9712.3328h-.1153c-.3503-.0097-.6892-.1258-.9713-.3328-.8135-.7321-12.74788-12.7721-13.39741-13.9156l-.06069-.0787c-1.1843-1.4885-1.82639-3.3337-1.82112-5.2335V9.34161c0-4.48929 3.5087-8.14367 7.81868-8.14367h7.95224v1.89374c-.1939-.0733-.3997-.11022-.6071-.1089h-5.6758c-1.97331.0016-3.86535.7836-5.26071 2.17433C4.07213 6.54784 3.28751 8.43363 3.2859 10.4004v5.6509c.00096.3644.11455.7196.32527 1.0173.21072.2977.50834.5235.85239.6466v3.6301c0 .4419.1757.8657.48859 1.1787.31289.313.73747.4896 1.18077.4912h3.98828c.0228 1.929.8055 3.7717 2.1793 5.1306l4.0064 3.9993c.3332.3299.7839.5151 1.2536.5151s.9203-.1852 1.2535-.5151l4.0125-3.9993c1.3721-1.3596 2.1527-3.2024 2.1732-5.1306h3.9397c.4439-.0016.8691-.178 1.183-.4908.3138-.3129.4909-.7367.4925-1.1791v-3.6301c.3538-.1181.6613-.344.8792-.6458.2179-.3019.335-.6643.3348-1.0362v-5.651c-.0016-1.96674-.7862-3.85251-2.1815-5.24324-1.3954-1.39073-3.2874-2.17273-5.2608-2.17433h-5.6454c-.2265.00179-.4508.04484-.6617.12705V1.17979h7.9583c4.3099 0 7.8126 3.63016 7.8126 8.14366V20.3349z" fill="#3B2314"/>
</svg>
