<svg width="222" height="60" fill="none" xmlns="http://www.w3.org/2000/svg">
  <path d="M14.7907 22.9171c2.1438.0052 4.2112-.7928 5.7922-2.2358l.5692-.5673c.067-.0751.1423-.1502.2093-.2336l.0586-.075.2009-.2503.0669-.0835.3516-.5005.0502-.0834.134-.2169.1004-.1836.1172-.2086c0-.0834.0837-.1668.1172-.2502.0301-.0504.0553-.1034.0753-.1585.0656-.1332.1243-.2696.1758-.4088l.0502-.1418c0-.1085.0837-.2169.1172-.3254.0166-.0436.0306-.0882.0419-.1335 0-.1502.092-.292.1255-.4421-.1381-.0438-.282-.0663-.4269-.0668h-7.1315c-1.5836-.0003-3.1365.4349-4.4879 1.2577-1.35129.8228-2.44859 2.0014-3.17104 3.4058 0 .2169-.06695.4338-.08369.6507-.00359.0221-.00359.0447 0 .0668v1.2013l6.94743-.0167zM33.6571 24.5773c-.7377.0006-1.4732-.0805-2.193-.2419 1.5638 1.55 2.5802 3.5643 2.8962 5.7397h5.5412c.1731 0 .3392-.0686.4616-.1906.1224-.122.1913-.2876.1913-.4601v-4.8637l-6.8973.0166zM40.5545 21.8576v-.0918-.4672c-.0416-.3239-.1059-.6444-.1925-.9594-.774-1.2258-1.8472-2.2361-3.1193-2.9364-1.272-.7003-2.7014-1.0678-4.1546-1.068h-7.1315c-.1985-.0007-.395.039-.5776.1168-.0037.0221-.0037.0446 0 .0667 0 .1085.0586.2169.0921.3254l.0753.2503.1004.2836.1005.2336.0753.1752c.034.0884.0732.1748.1172.2586.0162.0406.0358.0796.0586.1168.1623.3205.3411.6324.5357.9344l.226.317c.1925.2503.3935.4922.6111.7258l.4938.4922c1.5854 1.4551 3.6622 2.2623 5.8174 2.2609h6.914v-.5757c-.0252-.1168-.0335-.2919-.0419-.4588z" fill="#F0B41C"/>
  <path d="M42.2451 13.857v-.1168-.4004c-.004-.036-.004-.0724 0-.1085 0-.1501-.0418-.292-.067-.4338v-.0584c0-.1585-.0752-.3253-.1171-.4922-.8258-1.434-2.0169-2.62509-3.453-3.4528-1.436-.82772-3.066-1.26262-4.7249-1.26074h-7.8179c-.34.00112-.671.10914-.9458.30867v5.18077c.1992-.054.4046-.082.611-.0834h7.1316c2.502.0044 4.9.9975 6.6684 2.7616 1.7684 1.7641 2.7627 4.1551 2.7649 6.6488.0087-.072.0087-.1449 0-.2169v-7.7836c-.0334-.1752-.0418-.3421-.0502-.4923zM8.44554 30.0918h5.61656c.3194-2.1761 1.3386-4.1902 2.9045-5.7397-.7226.1613-1.4609.2424-2.2014.2419H7.7843v4.8638c.00439.1711.07624.3336.20001.4523.12378.1186.28949.1839.46123.1817zM15.5773 12.9311h7.1316c.2329.0021.4642.0386.6863.1084V7.71696c-.2443-.13143-.5175-.20025-.7952-.20024h-7.8095c-.998-.25195-2.0399-.2783-3.0494-.07715-1.0095.20116-1.96117.62475-2.78526 1.23976-.82408.61501-1.4998 1.40587-1.97764 2.31477-.47784.9088-.74574 1.9127-.78411 2.9381V21.5323c.20289-2.3429 1.27859-4.5253 3.01525-6.1172 1.73666-1.592 4.00846-2.4781 6.36796-2.484zM24.1821 26.1875c-.7415 1.646-1.942 3.0449-3.4587 4.03-1.5167.9851-3.2856 1.5148-5.0958 1.5261.0114.687.1041 1.3703.2762 2.0356 0 .1335.067.2587.1088.3838.0331.1252.075.2478.1255.3671 0 .1168.0921.2335.134.342v.0501l.1423.3253c.0027.0194.0027.0391 0 .0584.0502.1001.1004.2002.159.3004v.0834l.1591.2669.0669.1085.1507.2419.0921.1252.1506.2085c.0437.0493.0829.1023.1172.1585.0502.0584.0921.1168.1423.1669l.159.1919.1172.1251c.0921.1085.1925.2086.293.3087l5.5244 5.5061c.0731.0729.1599.1308.2554.1702.0955.0395.1979.0597.3013.0597.1033 0 .2057-.0202.3012-.0597.0955-.0394.1823-.0973.2554-.1702l5.5328-5.5061.293-.3087c.0678-.0277.1378-.05.2092-.0667l.1591-.2002c.0519-.0547.0995-.1133.1422-.1753l.1172-.1501.1507-.2086.0921-.1251.1506-.242c.0271-.033.0497-.0694.067-.1084.0579-.086.111-.1752.159-.267l.0503-.0834.1506-.292c-.0045-.022-.0045-.0447 0-.0667.0502-.1085.1005-.2169.1424-.3254v-.05c.0502-.1085.092-.2253.1339-.3421l.1255-.367c0-.1252.0753-.2503.1172-.3838.1758-.6646.2686-1.3483.2762-2.0356-1.8139-.0193-3.584-.558-5.0992-1.552-1.5153-.994-2.7118-2.4014-3.4469-4.0542zM17.5525 28.4399c-.4928.4885-.9281 1.0315-1.2974 1.6185 1.8718-.1648 3.6205-.9988 4.9235-2.3482 1.3031-1.3493 2.0725-3.1228 2.1662-4.9933-.0968.0625-.1866.1352-.2678.2169l-5.5245 5.5061zM32.1925 30.0667c-.3693-.5895-.8046-1.1353-1.2974-1.6268l-5.5328-5.5061c-.1012-.1024-.2168-.1896-.3433-.2587.086 1.8919.8626 3.6873 2.1836 5.0485 1.3211 1.3612 3.0956 2.1945 4.9899 2.3431z" fill="#F0B41C"/>
  <path d="M33.4313 36.1068c-.2094.4241-.4472.8338-.7115 1.2263-.0837.1252-.1757.2503-.2678.3671l-.0502.0667-.2428.3171-.1339.1418c-.0597.0761-.124.1485-.1925.2169-.1088.1251-.2176.242-.3348.3588l-5.5329 5.5144c-.4594.4549-1.0808.7103-1.7284.7103-.6477 0-1.2691-.2554-1.7285-.7103l-5.5244-5.5144c-.1172-.1168-.2344-.2337-.3432-.3588-.1088-.1252-.1256-.1418-.1926-.2169l-.1255-.1418-.2511-.3171-.0503-.0667c-.092-.1168-.1757-.2419-.2678-.3671-.2669-.3924-.5075-.8021-.7199-1.2263-.0669-.1335-.1255-.267-.1841-.4005.1347 2.2921 1.1121 4.4543 2.7455 6.0734l5.5244 5.5145c.3041.3001.7147.4684 1.1426.4684.4279 0 .8385-.1683 1.1425-.4684l5.5328-5.5145c1.6269-1.6236 2.6032-3.7832 2.7455-6.0734l-.1841.4005h-.067z" fill="#F0B41C"/>
  <path d="M35.7164 46.7686c-2.4442 2.5028-8.4625 8.5929-9.1321 9.1769-.6597.5016-1.4564.7925-2.2851.8343h-.293c-.8294-.0387-1.6269-.3298-2.2851-.8343-.6612-.5673-6.6963-6.6741-9.1237-9.1769-8.54614-8.7347-9.51712-10.1029-9.75149-10.5033C.999919 33.9311-.00267624 31.0449.0000119 28.0728v3.2203C-.0039857 34.2654.998754 37.152 2.84591 39.4855c.23437.4005 1.20535 1.7687 9.75149 10.5034 2.4358 2.5028 8.4625 8.6012 9.1237 9.1768.6582.5045 1.4557.7957 2.2851.8343h.293c.8287-.0418 1.6254-.3326 2.2851-.8343.6613-.5589 6.6963-6.674 9.1321-9.1768 8.5377-8.7347 9.5171-10.1029 9.7515-10.5034 1.8471-2.3335 2.8498-5.2201 2.8458-8.1924v-3.2536c.0027 2.9721-.9999 5.8583-2.8458 8.1924-.2093.4338-1.1887 1.8187-9.7515 10.5367z" fill="#F0B41C"/>
  <path d="M35.9022 0h-23.437C5.60988 0 .0268609 5.78143.0268609 12.881v15.1585c-.0026882 2.9721.9999591 5.8583 2.8459491 8.1924.23437.4005 1.2053 1.7686 9.75149 10.5033 2.4357 2.5028 8.4624 8.5929 9.1237 9.1769.6582.5044 1.4557.7956 2.2851.8343h.293c.8287-.0418 1.6253-.3327 2.2851-.8343.6696-.5673 6.6963-6.6741 9.1321-9.1769 8.5377-8.7347 9.517-10.1028 9.7514-10.5033 1.846-2.3341 2.8486-5.2203 2.8459-8.1924V12.881C48.3406 5.78143 42.7576 0 35.9022 0zm-3.1053 12.931h-7.1232c-.2065.0015-.4118.0295-.611.0834V6.54892c0-.20798.0829-.40744.2304-.55451.1476-.14706.3477-.22969.5564-.22969h7.8179c2.2814.00221 4.4688.90649 6.082 2.51436s2.5205 3.78802 2.5227 6.06182v7.792c.0087.072.0087.1449 0 .2169 0-1.239-.2453-2.4658-.7217-3.6102-.4765-1.1444-1.1749-2.1838-2.055-3.0587-.8802-.875-1.925-1.5682-3.0744-2.0401-1.1494-.4719-2.381-.7131-3.6241-.7098zm.837 10.0112c-2.1738-.0027-4.2663-.8245-5.8575-2.3007-1.5913-1.4761-2.5637-3.4973-2.7221-5.6582.0521-.1113.1348-.2056.2385-.2721.1037-.0664.2242-.1022.3474-.1033h7.1315c2.0625.0044 4.039.8235 5.4966 2.2778 1.4576 1.4543 2.2773 3.4252 2.2795 5.4808v.5757h-6.9139zm6.9139 1.6685v4.872c0 .1726-.0687.3382-.1912.4602-.1224.122-.2885.1906-.4617.1906h-5.516c-.316-2.1755-1.3324-4.1897-2.8962-5.7397.7207.1545 1.4558.2328 2.193.2335l6.8721-.0166zm-10.237.926c1.2506 1.2412 2.0842 2.8385 2.3856 4.5717-2.0449-.0284-3.9968-.857-5.4343-2.3069-1.4375-1.4499-2.2455-3.4049-2.2497-5.4433v-2.094l5.2984 5.2725zm2.5112 6.2236c-.031 2.2202-.9323 4.3401-2.5112 5.9065L24.778 43.173c-.073.0729-.1598.1307-.2553.1702-.0955.0394-.1979.0597-.3013.0597-.1034 0-.2057-.0203-.3012-.0597-.0955-.0395-.1824-.0973-.2554-.1702l-5.5245-5.5062c-1.5765-1.5679-2.4774-3.6869-2.5111-5.9065 1.8117-.0097 3.5824-.5387 5.1007-1.5239 1.5184-.9852 2.7202-2.385 3.4622-4.0323.7491 1.6494 1.959 3.0489 3.4849 4.0312 1.5259.9824 3.3033 1.506 5.1199 1.5083l.0251.0167zm-9.4418-11.4294v2.0273c-.0038 2.0248-.8018 3.9679-2.2234 5.4144-1.4216 1.4465-3.3542 2.2818-5.3853 2.3275.2958-1.7291 1.1236-3.3238 2.3688-4.5634l5.2399-5.2058zm-8.588 2.5862H7.81129v-.5756c.00221-2.0556.82195-4.0265 2.27951-5.4808 1.4576-1.4543 3.4342-2.2734 5.4966-2.2778h7.1315c.1615.0032.3162.0652.4349.1744.1188.1091.1933.2578.2096.4179-.2098 2.1206-1.2034 4.0875-2.7876 5.5184-1.5842 1.4309-3.6457 2.2234-5.7836 2.2235zm7.9267-10.0111h-7.1315c-2.3624.0017-4.6383.886-6.37853 2.4784-1.74021 1.5923-2.81828 3.777-3.02143 6.1228v-7.1913c.00885-2.2695.91909-4.44321 2.5316-6.04568 1.61246-1.60246 3.79606-2.50331 6.07316-2.5055h7.8179c.2063.00993.4016.0955.5484.24026.1468.14476.2346.33849.2468.54394v6.47388c-.2257-.065-.4598-.0959-.6947-.0918l.0083-.025zM7.81129 24.5856h6.98091c.74-.0012 1.4778-.0795 2.2014-.2335-1.5659 1.5495-2.5851 3.5636-2.9045 5.7397H8.47258c-.1717-.0022-.33563-.0718-.45627-.1936-.12063-.1218-.18827-.286-.18826-.4572l-.01676-4.8554zM25.6318 54.619h.0503-.0503zM46.675 28.0395c.0072 2.6195-.8781 5.1638-2.5112 7.2164l-.0753.1084c-.904 1.6101-17.3518 18.2119-18.4734 19.188-.3903.2831-.8568.443-1.3393.4588h-.159c-.4829-.0132-.9503-.1733-1.3393-.4588-1.1216-1.0095-17.57776-17.6112-18.47339-19.188l-.08369-.1084c-1.63301-2.0526-2.51837-4.5969-2.51111-7.2164V12.881c0-6.19023 4.83808-11.22918 10.78109-11.22918h10.9651v2.61124c-.2673-.10107-.5511-.15197-.837-.15016h-7.8263c-2.721.00221-5.32989 1.0805-7.25393 2.99815C5.61424 9.0287 4.53234 11.629 4.53012 14.3409v7.792c.00132.5024.15795.9922.44851 1.4027.29056.4105.70094.7218 1.17535.8915v5.0056c-.00001.6092.24226 1.1936.6737 1.6252.43144.4316 1.01689.6751 1.62815.6773h5.49937c.0315 2.6599 1.1107 5.2007 3.0049 7.0746l5.5245 5.5145c.4594.4549 1.0808.7102 1.7285.7102.6476 0 1.269-.2553 1.7284-.7102l5.5328-5.5145c1.8919-1.8747 2.9683-4.4157 2.9966-7.0746h5.4324c.612-.0021 1.1984-.2454 1.6312-.6768.4327-.4313.6768-1.0157.679-1.6257v-5.0056c.4879-.1627.912-.4742 1.2124-.8905.3004-.4162.462-.916.4617-1.4287v-7.792c-.0022-2.712-1.0841-5.31223-3.0081-7.22988-1.9241-1.91765-4.533-2.99594-7.254-2.99815h-7.7844c-.3123.00247-.6215.06184-.9124.17519V1.62679h10.9735c5.943 0 10.7728 5.00556 10.7728 11.22911v15.1836zM56.1318 22.2831c-.7917-.7116-1.4193-1.5856-1.8398-2.5621-.4205-.9764-.6238-2.032-.596-3.0942v-2.5027-2.5028c-.018-1.0558.1926-2.1031.6172-3.07053.4247-.96743 1.0535-1.8323 1.8437-2.53573 1.7814-1.39862 4.0135-2.10162 6.2778-1.97719 1.5328-.01378 3.0538.26956 4.4781.83426 1.2395.48459 2.3222 1.2982 3.1305 2.35259.7786 1.05441 1.2007 2.3282 1.2054 3.6374.0016.0799-.014.1592-.0458.2326-.0318.0734-.079.1392-.1384.1928-.1182.1093-.274.1691-.4352.1669h-3.9425c-.2055.02-.4112-.0365-.5775-.1585-.1525-.1592-.2619-.3544-.3181-.5673-.163-.75885-.5863-1.43736-1.197-1.91878-.6332-.39415-1.372-.58625-2.1177-.55062-2.1149 0-3.2114 1.17632-3.2895 3.5289v4.7052c.0753 2.3526 1.1718 3.5206 3.2895 3.5206.7465.0326 1.4853-.1623 2.1177-.5589.6168-.4688 1.042-1.1447 1.197-1.9021.0396-.2179.1447-.4187.3013-.5757.1771-.1116.3853-.1642.5943-.1501h3.9843c.1612-.0022.3171.0576.4353.1668.0592.0521.1063.1163.1381.1884.0318.072.0475.1501.046.2287-.0029 1.3121-.425 2.589-1.2053 3.6458-.8089 1.0519-1.8916 1.8627-3.1305 2.3442-1.4232.5687-2.945.8522-4.4782.8343-2.7064-.0111-4.8213-.6619-6.3447-1.9522zM74.3289 23.7263c-.0686-.0625-.1233-.1385-.1608-.2232-.0375-.0848-.0568-.1764-.0569-.269V5.07225c-.0026-.09518.0138-.18995.0483-.27875.0345-.08881.0864-.16987.1526-.23848.0634-.06916.1412-.12366.228-.15969.0867-.03602.1804-.05271.2743-.04888h7.7258c2.0683-.12348 4.1164.46562 5.8007 1.66852.6957.57039 1.2474 1.29548 1.6108 2.11702.3635.82154.5285 1.71661.4817 2.61321.0385 1.1796-.2825 2.343-.9207 3.3371-.6187.9312-1.4893 1.6687-2.5111 2.1273l3.7918 6.8243c.0539.0941.0827.2003.0837.3087-.0013.1501-.0614.2938-.1674.4004-.0515.0599-.1158.1076-.1883.1394-.0724.0317-.1511.0468-.2302.0442h-3.9593c-.2472.0113-.4917-.0551-.6989-.1898-.2073-.1348-.3669-.3311-.4561-.5611l-3.0887-6.0734h-2.6953v6.1234c.004.0949-.0127.1895-.0488.2773-.0361.0878-.0908.1669-.1604.2317-.1428.1265-.328.195-.519.1919h-3.8503c-.0905.0024-.1806-.0141-.2642-.0486-.0837-.0345-.1591-.0862-.2213-.1517zm8.1778-10.7035c.6692.0487 1.3307-.1671 1.8415-.6007.2174-.2181.3864-.4794.496-.7669.1096-.2874.1573-.5946.1401-.9016.0136-.3129-.0357-.6254-.145-.9191-.1092-.29368-.2762-.56265-.4911-.79116-.2468-.22653-.5374-.40038-.8541-.51084-.3167-.11047-.6527-.15525-.9874-.13155h-3.1138v4.62185h3.1138zM92.1327 23.7514c-.0575-.0499-.1037-.1114-.1354-.1804-.0318-.0691-.0484-.1441-.0488-.22-.0113-.0859-.0113-.1728 0-.2586l6.5457-17.93665c.0586-.24833.2032-.46812.4084-.62071.2051-.15258.4577-.22819.7132-.21355h4.3782c.256-.01335.509.0626.715.21483.206.15222.353.37123.414.61943l6.538 17.93665c.012.0857.012.1728 0 .2586-.012.1524-.079.2953-.188.4026s-.253.1718-.407.1814h-3.649c-.204.0102-.406-.044-.577-.1548-.172-.1109-.304-.2727-.377-.4626l-1.013-2.7113h-7.3576l-1.0128 2.7113c-.0737.1899-.2056.3517-.3769.4626-.1713.1108-.3734.165-.5773.1548h-3.6495c-.1335-.0161-.2559-.0817-.3432-.1836zm7.1985-7.3415h5.0218l-2.511-7.14125-2.5108 7.14125zM114.063 23.7264c-.067-.063-.121-.1393-.157-.2241-.036-.0848-.054-.1761-.052-.2682V5.07229c-.004-.09466.01-.18921.043-.27805.034-.08884.084-.17017.149-.23919.064-.06828.142-.12219.229-.15815.086-.03596.18-.05314.273-.05041h13.058c.098-.00315.195.01374.286.04962.09.03588.173.08999.242.15894.067.06821.12.14902.156.23779.036.08877.054.18374.053.27945v2.94494c.002.09457-.016.1885-.052.27603s-.09.16677-.157.23285c-.144.13083-.333.19982-.528.19189h-8.588v3.896h8.027c.097-.004.193.0125.283.0484.089.036.17.0906.236.1602.07.0666.126.1469.163.2359.038.089.056.1848.055.2813v3.02c.002.0941-.017.1875-.054.2738-.038.0864-.094.1637-.164.2268-.069.0653-.15.116-.239.149-.09.0329-.185.0476-.28.0429h-8.027v6.2152c.001.0913-.016.1818-.05.2663-.035.0846-.086.1614-.151.2259-.063.0696-.14.1244-.227.1605-.087.0361-.181.0525-.275.0481h-3.767c-.093-.0027-.185-.0258-.269-.0675-.084-.0418-.158-.1013-.216-.1744zM135.826 23.743c-.071-.0644-.127-.1431-.164-.2309-.038-.0878-.056-.1826-.054-.278V8.90154h-4.938c-.095.0042-.19-.01063-.279-.04358-.089-.03296-.171-.08339-.24-.1483-.069-.06387-.123-.14151-.159-.22782-.036-.0863-.053-.17927-.051-.27272V5.07229c-.002-.09594.015-.19134.051-.28044.036-.08909.09-.17001.158-.23787.068-.06785.149-.12124.238-.1569.09-.03567.185-.05288.282-.05059h15.25c.097-.00249.192.01474.282.05061.089.03588.17.08964.237.15795.069.06705.124.14766.16.2367.036.08905.053.18458.05.28054v3.13683c.002.09345-.015.18642-.051.27272-.036.08631-.09.16395-.159.22782-.14.12954-.327.1985-.519.19188h-4.946V23.2341c.004.0949-.013.1895-.049.2773-.036.0878-.091.1668-.161.2316-.142.1273-.327.1959-.519.1919h-3.9c-.192.0058-.378-.0631-.519-.1919z" fill="#3B2314"/>
  <path d="M149.327 23.7263c-.066-.0641-.118-.1406-.154-.2251-.036-.0845-.055-.1753-.055-.2671V5.07227c-.003-.09519.014-.18995.048-.27876.035-.0888.087-.16986.153-.23848.063-.06961.141-.12443.228-.1605.086-.03606.18-.05248.274-.04806h8.68c2.377 0 4.146.48386 5.307 1.4516.592.51515 1.058 1.15948 1.36 1.88292.302.72343.432 1.50652.381 2.28841.019.8304-.234 1.6444-.72 2.3192-.41.5908-.951 1.0791-1.582 1.4266.793.3583 1.465.9378 1.934 1.6685.526.7721.8 1.6866.787 2.6196.045.8249-.1 1.6492-.423 2.4098-.324.7606-.818 1.4374-1.444 1.9784-1.539 1.1403-3.435 1.6964-5.349 1.5684h-8.931c-.094-.0026-.186-.0247-.271-.065-.085-.0402-.161-.0976-.223-.1686zm8.597-11.6295c.292.0192.584-.0204.86-.1164.276-.0961.53-.2466.747-.4426.187-.1935.333-.4224.429-.6732.096-.2508.141-.5184.132-.7868.009-.26017-.035-.51953-.13-.76205-.095-.24252-.239-.46301-.423-.64782-.218-.1945-.474-.34282-.752-.43602-.277-.0932-.571-.12935-.863-.10624h-3.507v3.97113h3.507zm.259 8.0589c.307.0147.614-.0333.902-.1409.288-.1075.551-.2725.772-.4848.393-.4288.61-.9881.61-1.5684s-.217-1.1397-.61-1.5684c-.221-.2134-.484-.3797-.771-.4887-.288-.109-.595-.1584-.903-.1453h-3.766v4.3965h3.766zM169.182 23.7263c-.066-.0641-.118-.1406-.154-.2251-.036-.0845-.055-.1753-.055-.2671V5.07227c-.003-.09519.013-.18995.048-.27876.034-.0888.086-.16986.152-.23848.063-.06961.141-.12443.228-.1605.087-.03606.181-.05248.275-.04806h13.258c.097-.00249.192.01473.282.05061.089.03588.17.08964.237.15795.068.06821.121.14902.157.23779.036.08877.054.18374.053.27945v2.76975c.002.09345-.015.18642-.051.27272-.036.08631-.09.16397-.159.22784-.14.13181-.326.20368-.519.20022h-8.881v3.554h8.262c.096-.0023.192.0149.281.0505.09.0357.171.0891.239.1569.068.0679.122.1488.157.2379.036.0891.053.1845.051.2805v2.5027c.003.0973-.014.1941-.05.2845-.036.0904-.09.1725-.159.2411-.139.1341-.325.2089-.519.2086h-8.262v3.6374h9.099c.096-.0041.193.0124.282.0484.09.0359.17.0905.237.1601.07.067.125.1473.162.2363.038.0889.056.1845.056.281v2.7697c.002.0954-.016.1902-.054.278-.037.0878-.093.1665-.164.2309-.141.1288-.328.1976-.519.1919h-13.51c-.169.0035-.333-.056-.46-.1669zM187.22 23.7264c-.068-.063-.121-.1393-.157-.2241-.036-.0848-.054-.1761-.052-.2682V5.07229c-.004-.19052.064-.37542.192-.51724.065-.06936.144-.12392.233-.15991.088-.036.183-.05259.278-.04866h13.25c.098-.00314.195.01374.285.04962.091.03588.174.08999.242.15895.068.0682.121.14902.157.23779.036.08877.054.18374.053.27945v2.76975c.002.09345-.015.18642-.051.27272-.036.0863-.09.16397-.159.22784-.07.06628-.153.11807-.243.15242-.091.03436-.187.0506-.284.04779h-8.873v3.55399h8.262c.096-.0025.192.0147.281.0506.09.0359.17.0896.238.1579.135.1388.21.3243.209.5173v2.5028c.004.0966-.013.1929-.048.283-.035.09-.089.1719-.157.2407s-.15.1229-.24.1591c-.09.0362-.186.0536-.283.0513h-8.262v3.6374h9.099c.096-.0041.193.0124.282.0484.09.036.17.0906.237.1601.069.0674.123.148.159.237.036.089.053.1844.05.2803v2.7697c.004.0949-.012.1894-.049.2773-.036.0878-.09.1668-.16.2316-.141.1288-.328.1976-.519.1919h-13.476c-.09.0061-.179-.0056-.264-.0342-.085-.0286-.163-.0737-.23-.1326zM205.241 23.7264c-.067-.063-.12-.1393-.157-.2241-.036-.0848-.053-.1761-.052-.2682V5.07228c-.004-.19051.065-.37541.193-.51723.065-.06936.144-.12392.232-.15991.088-.036.183-.05259.278-.04866h7.718c2.068-.12623 4.117.46314 5.8 1.66852.698.56908 1.25 1.29394 1.614 2.1158.364.82186.528 1.71758.479 2.6145.041 1.1786-.277 2.342-.912 3.337-.623.9276-1.493 1.6642-2.511 2.1274l3.791 6.8326c.05.0956.079.2009.084.3086-.001.1502-.061.2939-.167.4005-.054.0592-.12.1062-.194.1379-.074.0317-.153.0472-.233.0456h-3.96c-.246.0122-.49-.054-.696-.189-.206-.1349-.364-.3317-.45-.5618l-3.089-6.0734h-2.695v6.1234c.002.0954-.016.1902-.054.278-.037.0878-.093.1665-.164.2309-.141.1288-.327.1976-.519.1919h-3.842c-.092.0016-.184-.0162-.269-.0521-.085-.0359-.161-.0892-.225-.1564zm8.187-10.737c.668.0452 1.329-.1702 1.841-.6007.216-.2185.384-.4801.492-.7676.108-.2875.155-.5944.136-.9009.015-.3124-.033-.6246-.141-.91831-.107-.29371-.273-.56298-.487-.79189-.248-.22412-.539-.3964-.856-.50673-.316-.11032-.651-.15644-.985-.13565h-3.114v4.65518l3.114-.0334z" fill="#EFB41C"/>
</svg>
