<svg width="49" height="60" xmlns="http://www.w3.org/2000/svg">
  <path d="M14.7907 22.9171c2.1438.0052 4.2112-.7928 5.7922-2.2358l.5692-.5673c.067-.0751.1423-.1502.2093-.2336l.0586-.075.2009-.2503.0669-.0835.3516-.5005.0502-.0834.134-.2169.1004-.1836.1172-.2086c0-.0834.0837-.1668.1172-.2502.0301-.0504.0553-.1034.0753-.1585.0656-.1332.1243-.2696.1758-.4088l.0502-.1418c0-.1085.0837-.2169.1172-.3254.0166-.0436.0306-.0882.0419-.1335 0-.1502.092-.292.1255-.4421-.1381-.0438-.282-.0663-.4269-.0668h-7.1315c-1.5836-.0003-3.1365.4349-4.4879 1.2577-1.35129.8228-2.44859 2.0014-3.17104 3.4058 0 .2169-.06695.4338-.08369.6507-.00359.0221-.00359.0447 0 .0668v1.2013l6.94743-.0167zM33.6571 24.5773c-.7377.0006-1.4732-.0805-2.193-.2419 1.5638 1.55 2.5802 3.5643 2.8962 5.7397h5.5412c.1731 0 .3392-.0686.4616-.1906.1224-.122.1913-.2876.1913-.4601v-4.8637l-6.8973.0166zM40.5545 21.8576v-.0918-.4672c-.0416-.3239-.1059-.6444-.1925-.9594-.774-1.2258-1.8472-2.2361-3.1193-2.9364-1.272-.7003-2.7014-1.0678-4.1546-1.068h-7.1315c-.1985-.0007-.395.039-.5776.1168-.0037.0221-.0037.0446 0 .0667 0 .1085.0586.2169.0921.3254l.0753.2503.1004.2836.1005.2336.0753.1752c.034.0884.0732.1748.1172.2586.0162.0406.0358.0796.0586.1168.1623.3205.3411.6324.5357.9344l.226.317c.1925.2503.3935.4922.6111.7258l.4938.4922c1.5854 1.4551 3.6622 2.2623 5.8174 2.2609h6.914v-.5757c-.0252-.1168-.0335-.2919-.0419-.4588z" fill="#F0B41C"/>
  <path d="M42.2451 13.857v-.1168-.4004c-.004-.036-.004-.0724 0-.1085 0-.1501-.0418-.292-.067-.4338v-.0584c0-.1585-.0752-.3253-.1171-.4922-.8258-1.434-2.0169-2.62509-3.453-3.4528-1.436-.82772-3.066-1.26262-4.7249-1.26074h-7.8179c-.34.00112-.671.10914-.9458.30867v5.18077c.1992-.054.4046-.082.611-.0834h7.1316c2.502.0044 4.9.9975 6.6684 2.7616 1.7684 1.7641 2.7627 4.1551 2.7649 6.6488.0087-.072.0087-.1449 0-.2169v-7.7836c-.0334-.1752-.0418-.3421-.0502-.4923zM8.44554 30.0918h5.61656c.3194-2.1761 1.3386-4.1902 2.9045-5.7397-.7226.1613-1.4609.2424-2.2014.2419H7.7843v4.8638c.00439.1711.07624.3336.20001.4523.12378.1186.28949.1839.46123.1817zM15.5773 12.9311h7.1316c.2329.0021.4642.0386.6863.1084V7.71696c-.2443-.13143-.5175-.20025-.7952-.20024h-7.8095c-.998-.25195-2.0399-.2783-3.0494-.07715-1.0095.20116-1.96117.62475-2.78526 1.23976-.82408.61501-1.4998 1.40587-1.97764 2.31477-.47784.9088-.74574 1.9127-.78411 2.9381V21.5323c.20289-2.3429 1.27859-4.5253 3.01525-6.1172 1.73666-1.592 4.00846-2.4781 6.36796-2.484zM24.1821 26.1875c-.7415 1.646-1.942 3.0449-3.4587 4.03-1.5167.9851-3.2856 1.5148-5.0958 1.5261.0114.687.1041 1.3703.2762 2.0356 0 .1335.067.2587.1088.3838.0331.1252.075.2478.1255.3671 0 .1168.0921.2335.134.342v.0501l.1423.3253c.0027.0194.0027.0391 0 .0584.0502.1001.1004.2002.159.3004v.0834l.1591.2669.0669.1085.1507.2419.0921.1252.1506.2085c.0437.0493.0829.1023.1172.1585.0502.0584.0921.1168.1423.1669l.159.1919.1172.1251c.0921.1085.1925.2086.293.3087l5.5244 5.5061c.0731.0729.1599.1308.2554.1702.0955.0395.1979.0597.3013.0597.1033 0 .2057-.0202.3012-.0597.0955-.0394.1823-.0973.2554-.1702l5.5328-5.5061.293-.3087c.0678-.0277.1378-.05.2092-.0667l.1591-.2002c.0519-.0547.0995-.1133.1422-.1753l.1172-.1501.1507-.2086.0921-.1251.1506-.242c.0271-.033.0497-.0694.067-.1084.0579-.086.111-.1752.159-.267l.0503-.0834.1506-.292c-.0045-.022-.0045-.0447 0-.0667.0502-.1085.1005-.2169.1424-.3254v-.05c.0502-.1085.092-.2253.1339-.3421l.1255-.367c0-.1252.0753-.2503.1172-.3838.1758-.6646.2686-1.3483.2762-2.0356-1.8139-.0193-3.584-.558-5.0992-1.552-1.5153-.994-2.7118-2.4014-3.4469-4.0542zM17.5525 28.4399c-.4928.4885-.9281 1.0315-1.2974 1.6185 1.8718-.1648 3.6205-.9988 4.9235-2.3482 1.3031-1.3493 2.0725-3.1228 2.1662-4.9933-.0968.0625-.1866.1352-.2678.2169l-5.5245 5.5061zM32.1925 30.0667c-.3693-.5895-.8046-1.1353-1.2974-1.6268l-5.5328-5.5061c-.1012-.1024-.2168-.1896-.3433-.2587.086 1.8919.8626 3.6873 2.1836 5.0485 1.3211 1.3612 3.0956 2.1945 4.9899 2.3431z" fill="#F0B41C"/>
  <path d="M33.4313 36.1068c-.2094.4241-.4472.8338-.7115 1.2263-.0837.1252-.1757.2503-.2678.3671l-.0502.0667-.2428.3171-.1339.1418c-.0597.0761-.124.1485-.1925.2169-.1088.1251-.2176.242-.3348.3588l-5.5329 5.5144c-.4594.4549-1.0808.7103-1.7284.7103-.6477 0-1.2691-.2554-1.7285-.7103l-5.5244-5.5144c-.1172-.1168-.2344-.2337-.3432-.3588-.1088-.1252-.1256-.1418-.1926-.2169l-.1255-.1418-.2511-.3171-.0503-.0667c-.092-.1168-.1757-.2419-.2678-.3671-.2669-.3924-.5075-.8021-.7199-1.2263-.0669-.1335-.1255-.267-.1841-.4005.1347 2.2921 1.1121 4.4543 2.7455 6.0734l5.5244 5.5145c.3041.3001.7147.4684 1.1426.4684.4279 0 .8385-.1683 1.1425-.4684l5.5328-5.5145c1.6269-1.6236 2.6032-3.7832 2.7455-6.0734l-.1841.4005h-.067z" fill="#F0B41C"/>
  <path d="M35.7164 46.7686c-2.4442 2.5028-8.4625 8.5929-9.1321 9.1769-.6597.5016-1.4564.7925-2.2851.8343h-.293c-.8294-.0387-1.6269-.3298-2.2851-.8343-.6612-.5673-6.6963-6.6741-9.1237-9.1769-8.54614-8.7347-9.51712-10.1029-9.75149-10.5033C.999919 33.9311-.00267624 31.0449.0000119 28.0728v3.2203C-.0039857 34.2654.998754 37.152 2.84591 39.4855c.23437.4005 1.20535 1.7687 9.75149 10.5034 2.4358 2.5028 8.4625 8.6012 9.1237 9.1768.6582.5045 1.4557.7957 2.2851.8343h.293c.8287-.0418 1.6254-.3326 2.2851-.8343.6613-.5589 6.6963-6.674 9.1321-9.1768 8.5377-8.7347 9.5171-10.1029 9.7515-10.5034 1.8471-2.3335 2.8498-5.2201 2.8458-8.1924v-3.2536c.0027 2.9721-.9999 5.8583-2.8458 8.1924-.2093.4338-1.1887 1.8187-9.7515 10.5367z" fill="#F0B41C"/>
  <path d="M35.9022 0h-23.437C5.60988 0 .0268609 5.78143.0268609 12.881v15.1585c-.0026882 2.9721.9999591 5.8583 2.8459491 8.1924.23437.4005 1.2053 1.7686 9.75149 10.5033 2.4357 2.5028 8.4624 8.5929 9.1237 9.1769.6582.5044 1.4557.7956 2.2851.8343h.293c.8287-.0418 1.6253-.3327 2.2851-.8343.6696-.5673 6.6963-6.6741 9.1321-9.1769 8.5377-8.7347 9.517-10.1028 9.7514-10.5033 1.846-2.3341 2.8486-5.2203 2.8459-8.1924V12.881C48.3406 5.78143 42.7576 0 35.9022 0zm-3.1053 12.931h-7.1232c-.2065.0015-.4118.0295-.611.0834V6.54892c0-.20798.0829-.40744.2304-.55451.1476-.14706.3477-.22969.5564-.22969h7.8179c2.2814.00221 4.4688.90649 6.082 2.51436s2.5205 3.78802 2.5227 6.06182v7.792c.0087.072.0087.1449 0 .2169 0-1.239-.2453-2.4658-.7217-3.6102-.4765-1.1444-1.1749-2.1838-2.055-3.0587-.8802-.875-1.925-1.5682-3.0744-2.0401-1.1494-.4719-2.381-.7131-3.6241-.7098zm.837 10.0112c-2.1738-.0027-4.2663-.8245-5.8575-2.3007-1.5913-1.4761-2.5637-3.4973-2.7221-5.6582.0521-.1113.1348-.2056.2385-.2721.1037-.0664.2242-.1022.3474-.1033h7.1315c2.0625.0044 4.039.8235 5.4966 2.2778 1.4576 1.4543 2.2773 3.4252 2.2795 5.4808v.5757h-6.9139zm6.9139 1.6685v4.872c0 .1726-.0687.3382-.1912.4602-.1224.122-.2885.1906-.4617.1906h-5.516c-.316-2.1755-1.3324-4.1897-2.8962-5.7397.7207.1545 1.4558.2328 2.193.2335l6.8721-.0166zm-10.237.926c1.2506 1.2412 2.0842 2.8385 2.3856 4.5717-2.0449-.0284-3.9968-.857-5.4343-2.3069-1.4375-1.4499-2.2455-3.4049-2.2497-5.4433v-2.094l5.2984 5.2725zm2.5112 6.2236c-.031 2.2202-.9323 4.3401-2.5112 5.9065L24.778 43.173c-.073.0729-.1598.1307-.2553.1702-.0955.0394-.1979.0597-.3013.0597-.1034 0-.2057-.0203-.3012-.0597-.0955-.0395-.1824-.0973-.2554-.1702l-5.5245-5.5062c-1.5765-1.5679-2.4774-3.6869-2.5111-5.9065 1.8117-.0097 3.5824-.5387 5.1007-1.5239 1.5184-.9852 2.7202-2.385 3.4622-4.0323.7491 1.6494 1.959 3.0489 3.4849 4.0312 1.5259.9824 3.3033 1.506 5.1199 1.5083l.0251.0167zm-9.4418-11.4294v2.0273c-.0038 2.0248-.8018 3.9679-2.2234 5.4144-1.4216 1.4465-3.3542 2.2818-5.3853 2.3275.2958-1.7291 1.1236-3.3238 2.3688-4.5634l5.2399-5.2058zm-8.588 2.5862H7.81129v-.5756c.00221-2.0556.82195-4.0265 2.27951-5.4808 1.4576-1.4543 3.4342-2.2734 5.4966-2.2778h7.1315c.1615.0032.3162.0652.4349.1744.1188.1091.1933.2578.2096.4179-.2098 2.1206-1.2034 4.0875-2.7876 5.5184-1.5842 1.4309-3.6457 2.2234-5.7836 2.2235zm7.9267-10.0111h-7.1315c-2.3624.0017-4.6383.886-6.37853 2.4784-1.74021 1.5923-2.81828 3.777-3.02143 6.1228v-7.1913c.00885-2.2695.91909-4.44321 2.5316-6.04568 1.61246-1.60246 3.79606-2.50331 6.07316-2.5055h7.8179c.2063.00993.4016.0955.5484.24026.1468.14476.2346.33849.2468.54394v6.47388c-.2257-.065-.4598-.0959-.6947-.0918l.0083-.025zM7.81129 24.5856h6.98091c.74-.0012 1.4778-.0795 2.2014-.2335-1.5659 1.5495-2.5851 3.5636-2.9045 5.7397H8.47258c-.1717-.0022-.33563-.0718-.45627-.1936-.12063-.1218-.18827-.286-.18826-.4572l-.01676-4.8554zM25.6318 54.619h.0503-.0503zM46.675 28.0395c.0072 2.6195-.8781 5.1638-2.5112 7.2164l-.0753.1084c-.904 1.6101-17.3518 18.2119-18.4734 19.188-.3903.2831-.8568.443-1.3393.4588h-.159c-.4829-.0132-.9503-.1733-1.3393-.4588-1.1216-1.0095-17.57776-17.6112-18.47339-19.188l-.08369-.1084c-1.63301-2.0526-2.51837-4.5969-2.51111-7.2164V12.881c0-6.19023 4.83808-11.22918 10.78109-11.22918h10.9651v2.61124c-.2673-.10107-.5511-.15197-.837-.15016h-7.8263c-2.721.00221-5.32989 1.0805-7.25393 2.99815C5.61424 9.0287 4.53234 11.629 4.53012 14.3409v7.792c.00132.5024.15795.9922.44851 1.4027.29056.4105.70094.7218 1.17535.8915v5.0056c-.00001.6092.24226 1.1936.6737 1.6252.43144.4316 1.01689.6751 1.62815.6773h5.49937c.0315 2.6599 1.1107 5.2007 3.0049 7.0746l5.5245 5.5145c.4594.4549 1.0808.7102 1.7285.7102.6476 0 1.269-.2553 1.7284-.7102l5.5328-5.5145c1.8919-1.8747 2.9683-4.4157 2.9966-7.0746h5.4324c.612-.0021 1.1984-.2454 1.6312-.6768.4327-.4313.6768-1.0157.679-1.6257v-5.0056c.4879-.1627.912-.4742 1.2124-.8905.3004-.4162.462-.916.4617-1.4287v-7.792c-.0022-2.712-1.0841-5.31223-3.0081-7.22988-1.9241-1.91765-4.533-2.99594-7.254-2.99815h-7.7844c-.3123.00247-.6215.06184-.9124.17519V1.62679h10.9735c5.943 0 10.7728 5.00556 10.7728 11.22911v15.1836z" fill="#3B2314"/>
</svg>
