<svg  viewBox="0 0 42 26" fill="none" xmlns="http://www.w3.org/2000/svg">
  <path d="M2.3335 25.032c-.512 0-.96-.16-1.344-.48-.32-.384-.48-.832-.48-1.344 0-.448.064-.832.192-1.152l7.2-18.528c.384-.832.832-1.472 1.344-1.92.512-.512 1.248-.768004 2.208-.768004h6.624c.576 0 1.024.224004 1.344.672004.384.384.544.896.48 1.536l-2.88 18.72c-.192.96-.576 1.76-1.152 2.4-.512.576-1.28.864-2.304.864H2.3335zm21.12 0c-.512 0-.96-.16-1.344-.48-.32-.384-.48-.832-.48-1.344 0-.448.064-.832.192-1.152l7.2-18.528c.384-.832.832-1.472 1.344-1.92.512-.512 1.248-.768004 2.208-.768004h6.72c.576 0 1.024.224004 1.344.672004.384.448.544.96.48 1.536l-2.976 18.72c-.128.896-.48 1.664-1.056 2.304-.576.64-1.376.96-2.4.96h-11.232z" fill="#EFB41C"/>
</svg>
