<svg viewBox="0 0 29 29" fill="none" xmlns="http://www.w3.org/2000/svg">
  <path d="M12.9961 27.4961C5.82979 27.4961 0 21.6663 0 14.5 0 7.3337 5.82979 1.50391 12.9961 1.50391c7.1663 0 12.9961 5.83063 12.9961 12.99609 0 .4101-.3322.7432-.7432.7432-.41 0-.7431-.3323-.7431-.7432 0-6.34698-5.1636-11.51145-11.5106-11.51145-6.34786 0-11.51149 5.16447-11.51149 11.51145 0 6.347 5.16363 11.5106 11.51149 11.5106 4.0606 0 7.8642-2.1767 9.9272-5.68.2084-.354.6636-.4703 1.0168-.2627.3532.2075.4703.6628.2636 1.0168-2.3274 3.9543-6.6223 6.4114-11.2068 6.4114z" fill="#3B2314"/>
  <path d="M25.2491 15.2431c-.1281 0-.2586-.0334-.3766-.1029l-4.654-2.7483c-.3532-.2084-.4703-.6637-.2619-1.0169.2092-.3531.6644-.4703 1.0176-.2611l4.0606 2.3977 2.6136-3.74341c.2352-.33643.698-.41844 1.0336-.18411.3364.23433.4184.69712.1841 1.03352l-3.0078 4.3067c-.1439.2067-.3741.3188-.6092.3188z" fill="#3B2314"/>
</svg>
