<svg viewBox="0 0 17 17" fill="none" xmlns="http://www.w3.org/2000/svg">
  <path d="M16.1152 10.1601c.1178-.56816.1769-1.12165.1769-1.66014 0-1.05512-.2045-2.06414-.6142-3.02707-.4094-.96285-.9628-1.79286-1.6601-2.49017-.6973-.69731-1.5272-1.25068-2.49-1.66028C10.5646.913117 9.55592.708281 8.50065.708281c-.53861 0-1.09206.059079-1.6602.177158C6.07309.295159 5.20978 0 4.25057 0c-1.17312 0-2.1747.414983-3.00482 1.24495C.415555 2.07515.00061035 3.07673.00061035 4.24988c0 .95921.29515965 1.82252.88536165 2.58988-.118002.5681-.17708 1.12159-.17708 1.6602 0 1.055.204681 2.06394.614158 3.02694.40944.9629.96286 1.7929 1.6602 2.4904.69728.6972 1.5274 1.2504 2.49025 1.6601.96293.4095 1.97196.6142 3.02707.6142.53857 0 1.09202-.0592 1.66043-.1772.7672.5903 1.6304.8856 2.5897.8856 1.173 0 2.1749-.4152 3.0045-1.2451.8302-.8302 1.2452-1.8318 1.2452-3.0051-.0002-.959-.2953-1.8222-.8852-2.5897zm-3.4977 1.6436c-.2433.4316-.5699.7765-.9793 1.0348-.4097.2583-.8616.4555-1.3559.5921-.49425.1364-1.01069.2048-1.54945.2048-1.24681 0-2.3203-.2417-3.22054-.7251-.90025-.4835-1.35032-1.0642-1.35032-1.7432 0-.3319.09412-.6084.28229-.8299.18813-.2214.46666-.3319.83559-.3319.21398 0 .41312.059.59757.1769.18444.1181.35412.2603.50914.4264.15502.1661.32276.3319.50356.498.18069.1661.42049.308.71929.4261.29888.1181.63645.1773 1.01286.1773.47957 0 .8668-.094 1.16223-.2821.29498-.1883.44258-.4263.44258-.7139 0-.2954-.118-.5166-.35396-.6642-.16212-.10358-.57551-.23635-1.2396-.39859l-1.61605-.39866c-.44266-.10319-.82268-.22298-1.14001-.35939-.31734-.13661-.6125-.31532-.88544-.53687-.27287-.22127-.47949-.49972-.61971-.83558-.14017-.33563-.21026-.72863-.21026-1.1787 0-.53868.12362-1.01259.37071-1.42222.24709-.40956.57563-.73058.98499-.96297.40944-.23244.85032-.4058 1.32264-.52016.47212-.11439.95913-.17157 1.46087-.17157.70847 0 1.37962.08489 2.01432.25457.6345.16968 1.1584.4187 1.5714.74705.4132.32846.6197.69552.6197 1.10128 0 .33191-.1049.6161-.3155.85214-.2098.236-.4885.35408-.8354.35408-.1918 0-.3688-.04431-.5311-.13285-.1623-.0885-.3098-.19545-.4428-.32089-.1329-.12537-.2732-.24899-.42073-.37072-.14754-.12172-.34679-.22685-.59737-.31539-.25116-.08854-.53504-.13285-.8523-.13285-1.0624 0-1.59372.28388-1.59372.85214 0 .12537.02772.23608.083.33198.05532.09591.11629.1734.18258.23244.06625.05912.17697.11808.33199.17716.15502.05912.28415.10164.38742.1273.10323.02582.2657.06455.48697.11615l1.1511.26558c.36149.08125.68416.16615.96836.25457.2842.08869.5885.21402.9132.37641.3246.16231.5939.343.8077.54225.2141.19941.393.45185.5371.75806.1439.30628.2157.64389.2157 1.01275-.0001.5386-.1216 1.0238-.3654 1.4554z" fill="#EFB41C"/>
</svg>
