<svg viewBox="0 0 16 16" fill="none" xmlns="http://www.w3.org/2000/svg">
  <path d="M15.9924 12.6241c.0339.2598-.0453.4856-.2372.6776l-2.2527 2.2357c-.1017.1129-.2343.209-.3981.2879-.1637.0791-.3246.1299-.4826.1525-.0113 0-.0453.0029-.1017.0085-.0564.0057-.1298.0085-.2202.0085-.2146 0-.5618-.0367-1.0417-.1101-.4799-.0734-1.0671-.2541-1.76151-.542-.69457-.288-1.48216-.7199-2.36291-1.2958-.88075-.5758-1.81802-1.3663-2.81172-2.3713-.79044-.7791-1.44538-1.5244-1.96482-2.23579-.51943-.71143-.93724-1.36919-1.25341-1.97332C.78762 6.86237.550487 6.3147.392399 5.8235.23431 5.33229.127036 4.90884.0705753 4.55314c-.0564602-.3557-.07904433-.63517-.06775229-.83843.01129209-.20326.01693809-.31618.01693809-.33876.0225841-.15809.0733983-.319.1524429-.48274.079044-.16373.175026-.29641.287947-.39804L2.71291.242405c.15809-.1580888.33877-.23713309.54202-.23713309.1468 0 .27666.04234519.38958.12703509.11292.084691.2089.189142.28795.313355L5.74483 3.88409c.10163.18067.12986.37828.08469.59283-.04517.21455-.14115.39522-.28795.54202l-.82996.82997c-.02259.02258-.04235.05928-.05929.11009-.01693.05082-.0254.09316-.0254.12704.04516.23713.14679.50814.30488.81303.13551.27101.34441.6013.62671.99087.2823.38958.68317.83841 1.2026 1.34655.50815.51949.95983.92311 1.35505 1.21111.39514.2879.72554.4997.9909.6352.26537.1355.46862.2173.60975.2455l.21167.0424c.02258 0 .05936-.0085.11012-.0254.0508-.017.0875-.0367.1101-.0594l.9655-.9824c.2033-.1806.4404-.2709.7114-.2709.192 0 .3444.0338.4573.1016h.0169l3.269 1.9309c.2372.1469.3784.3332.4236.559z" fill="#EFB41C"/>
</svg>
