<svg viewBox="0 0 15 15" fill="none" xmlns="http://www.w3.org/2000/svg">
  <g clip-path="url(#clip0)" fill="#EFB41C">
    <path d="M12.8313 6.29451c.018-2.11481-1.7832-4.05354-4.01514-4.32163-.0444-.00526-.09275-.01327-.14395-.02175-.1105-.01831-.22477-.03713-.34006-.03713-.45745 0-.57974.32134-.61193.51298-.0313.18634-.00144.34281.08861.46528.15149.206.41804.24256.63214.27187.06275.00866.12195.01672.17152.02785 2.00531.44809 2.68061 1.15258 3.01061 3.14087.008.04859.0117.10845.0155.17194.0144.23767.0444.73216.576.73216h.0001c.0442 0 .0918-.00382.1413-.01136.4951-.07524.4795-.52724.4721-.74441-.0021-.06117-.0041-.11903.0011-.1575.0014-.00969.0021-.01943.0021-.02917z"/>
    <path d="M8.20234 1.19665c.05939.00428.11562.00838.16244.01555 3.29292.50642 4.80732 2.0666 5.22702 5.38533.0071.05641.0083.12522.0094.19808.0042.25928.0128.79868.5921.80986l.018.00018c.1817 0 .3262-.05478.4295-.16295.1804-.18862.1678-.46882.1576-.694-.0024-.05525-.0048-.10729-.0042-.15285C14.8361 3.20166 11.898.12382 8.50686.00936335c-.01407-.00046583-.02749.00027951-.04104.00218945-.00666.0009783-.01901.0021894-.04016.0021894-.03382 0-.07542-.0029347-.11953-.00591611C8.25279.00419255 8.19232 0 8.13102 0c-.54005 0-.64272.383851-.65586.612671-.03028.528819.48131.566039.72718.583979zM13.4329 10.8868c-.07-.0535-.1424-.1088-.2102-.1634-.3595-.2894-.742-.5561-1.1119-.814-.0768-.05348-.1536-.107-.2301-.16067-.4738-.33284-.8998-.49457-1.3023-.49457-.5421 0-1.01473.29953-1.40483.89014-.17282.2619-.3825.3892-.6409.3892-.15279 0-.32641-.0436-.51596-.1297-1.52949-.69354-2.62165-1.75696-3.2462-3.16067-.30191-.67845-.20403-1.12192.3273-1.48286.30173-.20478.86334-.58602.82356-1.31608-.04505-.82905-1.8743-3.32357-2.64503-3.606894-.32632-.12-.66918-.121118-1.02089-.002795C1.36943 1.13236.733605 1.65545.416555 2.34712.110173 3.01546.124008 3.80021.45657 4.61655c.9614 2.36021 2.31307 4.41801 4.01762 6.11615 1.66845 1.6623 3.71912 3.0239 6.09501 4.0469.2141.0922.4388.1425.6028.1791.0559.0126.1041.0233.1393.033.0193.0052.0393.0081.0593.0082l.0187.0001h.0001c1.1175 0 2.4592-1.0211 2.8713-2.1852.361-1.0194-.2981-1.5232-.8278-1.928zM8.69661 3.89274c-.19132.00485-.58947.01472-.72917.42023-.06536.18951-.05753.35404.02329.48904.1186.19808.34584.25878.55253.29208.74958.12028 1.13455.53479 1.21155 1.30435.03578.35884.27739.60941.58769.60941.0229 0 .0464-.00135.0697-.00419.3731-.0444.554-.31854.5377-.81475.0059-.51788-.2651-1.10581-.726-1.57412-.46257-.46975-1.02013-.7343-1.52729-.72205z"/>
  </g>
  <defs>
    <clipPath id="clip0">
      <path fill="#fff" d="M0 0h15v15H0z"/>
    </clipPath>
  </defs>
</svg>
