<svg viewBox="0 0 54 60" fill="none" xmlns="http://www.w3.org/2000/svg">
  <path d="M30.7467 46.6789l-7.291 12.386.9984-8.2243c-.0276-.9109-.7695-1.6377-1.6814-1.6476h-6.4923l3.3963-17.7619h7.3578l-1.2654 7.0418-1.1153 6.2425c-.1136.6606.1737 1.3264.7331 1.6976.2831.1783.6131.2706.9484.2659h4.4114zm19.543-12.534c-1.8947 1.903-4.4719 2.9703-7.1581 2.9625H29.3817l1.2649-7.0408c.0829-.4875-.0511-.9854-.366-1.366-.316-.3817-.7862-.6012-1.2816-.5986H18.295c-.7971-.0005-1.4817.5652-1.6314 1.3478l-1.465 7.6414h-5.0773c-4.09335-.0005-7.7837-2.4672-9.349932-6.2493-1.567277-3.7816-.7017815-8.1346 2.191892-11.0304.46143-.4551.963-.867 1.49793-1.2315.68667-.4593.92859-1.355.56675-2.0975-.61784-1.2826-.93641-2.6882-.93276-4.1116.00522-5.26598 4.27274-9.5335 9.53872-9.53872 1.4614-.00313 2.903.33317 4.2117.98177.5871.28936 1.2884.21168 1.7983-.19969 4.7383-3.898904 11.3015-4.7133 16.85-2.09231 5.5486 2.62099 9.0867 8.20813 9.0846 14.34485v.0662c.0016.696.4317 1.3185 1.0819 1.5652 3.2299 1.2023 5.6262 3.9651 6.3598 7.3322.7341 3.3671-.2946 6.8765-2.7305 9.3145z" fill="url(#paint0_linear)"/>
  <defs>
    <linearGradient id="paint0_linear" y1="29.5335" x2="53.2528" y2="29.5335" gradientUnits="userSpaceOnUse">
      <stop stop-color="#EFB41C"/>
      <stop offset="1" stop-color="#FF8A00"/>
    </linearGradient>
  </defs>
</svg>
