<svg width="42" height="41" viewBox="0 0 42 41" fill="none" xmlns="http://www.w3.org/2000/svg">
<path d="M17.2645 24.9931C20.3407 23.3979 23.39 21.8175 26.4674 20.2215C23.3807 18.6109 20.3323 17.0212 17.2645 15.4202C17.2645 18.6222 17.2645 21.7915 17.2645 24.9931Z" fill="#EFB41C"/>
<path d="M21 0C9.67855 0 0.5 9.17813 0.5 20.5C0.5 31.8219 9.67855 41 21 41C32.3215 41 41.5 31.8219 41.5 20.5C41.5 9.17813 32.3215 0 21 0ZM34.9677 27.3427C34.6128 28.882 33.3537 30.0175 31.8383 30.1865C28.2491 30.5879 24.6168 30.59 20.9992 30.5879C17.3815 30.59 13.7483 30.5879 10.1584 30.1865C8.64296 30.0175 7.38464 28.882 7.03064 27.3427C6.52606 25.1499 6.52606 22.757 6.52606 20.5C6.52606 18.243 6.53193 15.8493 7.03651 13.6573C7.39052 12.118 8.64883 10.9821 10.1643 10.8127C13.7542 10.4117 17.3874 10.4096 21.005 10.4117C24.6218 10.4096 28.255 10.4117 31.8437 10.8127C33.36 10.9821 34.6191 12.1175 34.9731 13.6573C35.4777 15.8497 35.4735 18.243 35.4735 20.5C35.4735 22.757 35.4723 25.1503 34.9677 27.3427Z" fill="#EFB41C"/>
</svg>
